solid release_gate_lower
  facet normal 0 0 -1
    outer loop
      vertex 0 0 0
      vertex 24 18 0
      vertex 24 0 0
    endloop
  endfacet
  facet normal 0 0 -1
    outer loop
      vertex 0 0 0
      vertex 0 18 0
      vertex 24 18 0
    endloop
  endfacet
  facet normal 0 0 1
    outer loop
      vertex 0 0 6
      vertex 24 0 6
      vertex 24 18 6
    endloop
  endfacet
  facet normal 0 0 1
    outer loop
      vertex 0 0 6
      vertex 24 18 6
      vertex 0 18 6
    endloop
  endfacet
  facet normal 0 -1 0
    outer loop
      vertex 0 0 0
      vertex 24 0 0
      vertex 24 0 6
    endloop
  endfacet
  facet normal 0 -1 0
    outer loop
      vertex 0 0 0
      vertex 24 0 6
      vertex 0 0 6
    endloop
  endfacet
  facet normal 1 0 0
    outer loop
      vertex 24 0 0
      vertex 24 18 0
      vertex 24 18 6
    endloop
  endfacet
  facet normal 1 0 0
    outer loop
      vertex 24 0 0
      vertex 24 18 6
      vertex 24 0 6
    endloop
  endfacet
  facet normal 0 1 0
    outer loop
      vertex 24 18 0
      vertex 0 18 0
      vertex 0 18 6
    endloop
  endfacet
  facet normal 0 1 0
    outer loop
      vertex 24 18 0
      vertex 0 18 6
      vertex 24 18 6
    endloop
  endfacet
  facet normal -1 0 0
    outer loop
      vertex 0 18 0
      vertex 0 0 0
      vertex 0 0 6
    endloop
  endfacet
  facet normal -1 0 0
    outer loop
      vertex 0 18 0
      vertex 0 0 6
      vertex 0 18 6
    endloop
  endfacet
endsolid release_gate_lower
