solid lower_jaw_cube
  facet normal 0 0 -1
    outer loop
      vertex 0 0 0
      vertex 18 18 0
      vertex 18 0 0
    endloop
  endfacet
  facet normal 0 0 -1
    outer loop
      vertex 0 0 0
      vertex 0 18 0
      vertex 18 18 0
    endloop
  endfacet
  facet normal 0 0 1
    outer loop
      vertex 0 0 10
      vertex 18 0 10
      vertex 18 18 10
    endloop
  endfacet
  facet normal 0 0 1
    outer loop
      vertex 0 0 10
      vertex 18 18 10
      vertex 0 18 10
    endloop
  endfacet
  facet normal 0 -1 0
    outer loop
      vertex 0 0 0
      vertex 18 0 0
      vertex 18 0 10
    endloop
  endfacet
  facet normal 0 -1 0
    outer loop
      vertex 0 0 0
      vertex 18 0 10
      vertex 0 0 10
    endloop
  endfacet
  facet normal 0 1 0
    outer loop
      vertex 0 18 0
      vertex 18 18 10
      vertex 18 18 0
    endloop
  endfacet
  facet normal 0 1 0
    outer loop
      vertex 0 18 0
      vertex 0 18 10
      vertex 18 18 10
    endloop
  endfacet
  facet normal -1 0 0
    outer loop
      vertex 0 0 0
      vertex 0 0 10
      vertex 0 18 10
    endloop
  endfacet
  facet normal -1 0 0
    outer loop
      vertex 0 0 0
      vertex 0 18 10
      vertex 0 18 0
    endloop
  endfacet
  facet normal 1 0 0
    outer loop
      vertex 18 0 0
      vertex 18 18 0
      vertex 18 18 10
    endloop
  endfacet
  facet normal 1 0 0
    outer loop
      vertex 18 0 0
      vertex 18 18 10
      vertex 18 0 10
    endloop
  endfacet
endsolid lower_jaw_cube
